<?xml version="1.0" encoding="UTF-8"?>
<svg width="284px" height="92px" viewBox="0 0 284 92" version="1.1" xmlns="http://www.w3.org/2000/svg" xmlns:xlink="http://www.w3.org/1999/xlink">
    <title>Direct Debit</title>
    <defs>
        <polygon id="path-1" points="0 0.041 127.076902 0.041 127.076902 90 0 90"></polygon>
    </defs>
    <g id="Page-1" stroke="none" stroke-width="1" fill="none" fill-rule="evenodd">
        <g id="Direct-Debit">
            <g id="Group-3" transform="translate(0.000000, 0.959000)">
                <mask id="mask-2" fill="white">
                    <use xlink:href="#path-1"></use>
                </mask>
                <g id="Clip-2"></g>
                <path d="M69.8279,0.177 L69.8279,1.553 C87.9949,5.621 103.9749,17.155 103.9659,43.765 C103.9569,68.635 85.3259,85.17 62.5169,85.154 C34.3169,85.135 10.8329,68.568 10.8379,54.801 C10.8429,42.283 35.5859,32.982 56.9499,32.244 L66.9199,32.448 L66.9319,0.0409642155 C24.7569,0.011 0.0099,18.847 -0.000101694437,44.934 C-0.0081,69.799 28.3129,89.975 63.4469,90.000025 C98.5799,90.025 127.0679,71.293 127.076902,45.023 C127.0849,22.016 102.8769,1.908 69.8279,0.177" id="Fill-1" fill="#1D1D1B" mask="url(#mask-2)"></path>
            </g>
            <path d="M39.0519988,59.5329 C39.047,73.4409 54.611,81.5179 66.717,82.3899 L66.734,35.2539 C52.32,35.7919 39.057,45.7649 39.0519988,59.5329" id="Fill-4" fill="#1D1D1B"></path>
            <path d="M237.2991,30.9299 C237.5281,19.1709 253.3351,22.8739 254.9901,23.4289 L255.6261,19.8489 C248.3541,16.4429 229.3591,18.0259 229.6951,30.8329 C229.9871,41.9399 244.3491,45.2359 255.1601,42.2179 L254.7921,38.3139 C251.4971,39.1899 237.1151,40.3459 237.2991,30.9299" id="Fill-6" fill="#1D1D1B"></path>
            <polygon id="Fill-8" fill="#1D1D1B" points="257.092 18.843 257.092 22.692 266.803 22.7 266.796 42.868 273.667 42.873 273.674 22.704 283.202 22.711 283.203 18.861"></polygon>
            <polygon id="Fill-10" fill="#1D1D1B" points="227.8147 22.6721 227.8157 18.6441 208.5607 18.6321 208.5517 42.6421 214.9787 42.6471 214.9787 42.6461 227.7077 42.6561 227.7087 38.6291 214.9807 38.6201 214.9807 38.0641 214.9827 32.7801 227.0557 32.7891 227.0577 28.7621 214.9837 28.7551 214.9857 22.6631"></polygon>
            <polygon id="Fill-12" fill="#1D1D1B" points="165.4827 18.6511 165.4747 42.5611 172.6687 42.5671 172.6767 18.6561"></polygon>
            <path d="M144.0432,38.7219 L139.6162,38.8419 L139.6192,31.5889 L139.6222,22.2109 L145.1562,22.5129 C149.0292,22.5149 154.0602,25.1359 154.058201,30.6739 C154.0562,35.2549 150.2812,38.7249 144.0432,38.7219 M145.3092,18.8389 L137.7112,18.8329 L137.7112,18.8339 L132.4292,18.8299 L132.4202,42.7399 L139.6152,42.7449 L145.2992,42.7489083 C154.0382,42.7559 161.6022,38.3309 161.6052,30.9059 C161.6062,23.5309 154.0462,18.8449 145.3092,18.8389" id="Fill-14" fill="#1D1D1B"></path>
            <path d="M144.0334,68.7634 L139.6064,68.8834 L139.6084,61.6234 L139.6124,52.2524 L145.1454,52.5554 C149.0184,52.5584 154.0494,55.1804 154.047401,60.7164 C154.0464,65.2974 150.2714,68.7684 144.0334,68.7634 M145.2974,48.8804 L139.6134,48.8774 L139.6134,48.8764 L132.4184,48.8714 L132.4094,72.7824 L138.8614,72.7864 L145.2894,72.7914061 C154.0274,72.7974 161.5914,68.3724 161.5934,60.9484 C161.5954,53.5744 154.0364,48.8874 145.2974,48.8804" id="Fill-16" fill="#1D1D1B"></path>
            <polygon id="Fill-18" fill="#1D1D1B" points="243.5002 55.4021 243.4932 73.1721 250.4372 73.1771 250.4422 55.4081"></polygon>
            <polygon id="Fill-20" fill="#1D1D1B" points="243.5032 47.0974 243.5012 51.6774 250.4432 51.6824 250.4452 47.1014"></polygon>
            <path d="M274.0334,67.7068 L274.0364,59.1988 L279.9234,59.2028 L279.9244,55.4278 L274.0374,55.4238 L274.0394,50.8438 L266.9454,50.8378 L266.9444,55.4188 L261.4104,55.4148 L261.4094,59.1898 L266.9434,59.1938 L266.9394,68.5068 C266.9374,74.7988 275.3394,74.9568 280.1184,73.8528 L280.1204,69.9258 C277.9064,70.6808 274.0334,69.9728 274.0334,67.7068" id="Fill-22" fill="#1D1D1B"></path>
            <path d="M176.636,61.8054 C176.738,58.8284 179.203,57.5734 182.473,57.5753976 C185.492,57.5764 187.504,59.0884 187.805,61.7844 L176.636,61.8054 Z M182.399,54.0003956 C174.728,53.9954 169.343,58.2184 169.339999,63.5554 C169.338,69.5454 175.182,73.2244 182.393,73.2294763 C186.349,73.2334 189.914,73.0844 192.681,71.7774 L192.683,67.5984 C190.821,69.5604 176.935,72.0174 176.585,65.1204 L194.394,65.1344 C194.85,56.7784 188.311,54.0044 182.399,54.0003956 L182.399,54.0003956 Z" id="Fill-24" fill="#1D1D1B"></path>
            <path d="M190.5833,28.9880006 L185.9043,28.985 L185.9063,22.542 L190.6873,22.545 C192.9093,22.547 195.1133,23.605 195.1123,25.795 C195.1113,27.783 192.4443,28.989 190.5833,28.9880006 L190.5833,28.9880006 Z M198.3303,32.819 C198.2893,32.762 197.5243,31.661 196.6703,31.106 C196.9513,31.085 202.3053,30.658 202.3073,24.97 C202.3093,19.533 195.3303,18.622 191.7213,18.619 L178.8273,18.61 L178.8193,42.622 L185.9503,42.627 L185.9533,33.062 L188.6113,33.064 C191.5373,33.016 192.4923,35.359 192.5433,35.483 L196.3323,42.632 L203.8393,42.638 L198.3303,32.819 Z" id="Fill-26" fill="#1D1D1B"></path>
            <path d="M218.0891,69.6804028 C217.7231,69.6794 217.3651,69.6454 217.0171,69.5894 C216.9851,69.5844 216.9541,69.5824 216.9231,69.5764 C216.5921,69.5194 216.2721,69.4334 215.9611,69.3294 C215.9211,69.3164 215.8801,69.3034 215.8391,69.2894 C215.5371,69.1814 215.2471,69.0504 214.9711,68.9024 C214.9341,68.8814 214.8971,68.8624 214.8601,68.8404 C214.5841,68.6854 214.3231,68.5114 214.0791,68.3194 C214.0541,68.2984 214.0291,68.2784 214.0041,68.2574 C213.7561,68.0544 213.5251,67.8354 213.3171,67.5994 C213.3071,67.5884 213.2981,67.5764 213.2881,67.5654 C212.6311,66.8054 212.1901,65.8874 212.0531,64.8844 L212.0541,63.5444 C212.1921,62.5414 212.6331,61.6234 213.2911,60.8654 C213.3011,60.8544 213.3091,60.8424 213.3181,60.8314 C213.5271,60.5954 213.7591,60.3774 214.0071,60.1754 C214.0321,60.1544 214.0571,60.1334 214.0831,60.1134 C214.3261,59.9214 214.5881,59.7474 214.8631,59.5924 C214.9011,59.5724 214.9381,59.5524 214.9751,59.5324 C215.2511,59.3834 215.5401,59.2534 215.8431,59.1454 C215.8831,59.1314 215.9251,59.1184 215.9651,59.1054 C216.2761,59.0014 216.5951,58.9164 216.9271,58.8594 C216.9571,58.8544 216.9891,58.8514 217.0201,58.8464 C217.3681,58.7914 217.7261,58.7574 218.0921,58.7574 C221.4541,58.7594 224.1791,61.2064 224.1781,64.2234 C224.1771,67.2394 221.4511,69.6834 218.0891,69.6804028 M220.5831,54.7324 C220.1541,54.7314 219.7361,54.7464 219.3251,54.7724 C219.2101,54.7794 219.1001,54.7914 218.9851,54.8014 C218.6891,54.8254 218.3951,54.8534 218.1101,54.8914 C217.9921,54.9074 217.8781,54.9264 217.7631,54.9454 C217.4791,54.9894 217.2001,55.0394 216.9291,55.0994 C216.8331,55.1194 216.7371,55.1424 216.6431,55.1644 C216.3441,55.2374 216.0541,55.3204 215.7711,55.4104 C215.7141,55.4294 215.6551,55.4474 215.6001,55.4654 C214.1811,55.9504 212.9821,56.6884 212.0561,57.7074 L212.0601,47.0244 L205.1151,47.0194 L205.1081,72.9444 L212.0501,72.9494 L212.0511,70.6934 C212.2661,70.9334 212.4971,71.1564 212.7431,71.3654 C212.8091,71.4204 212.8811,71.4684 212.9471,71.5214 C213.1321,71.6664 213.3191,71.8084 213.5191,71.9384 C213.6161,72.0014 213.7201,72.0574 213.8211,72.1174 C214.0041,72.2244 214.1901,72.3284 214.3841,72.4234 C214.5021,72.4814 214.6241,72.5344 214.7451,72.5864 C214.9391,72.6704 215.1361,72.7504 215.3401,72.8244 C215.4731,72.8714 215.6081,72.9174 215.7451,72.9604 C215.9531,73.0264 216.1671,73.0854 216.3871,73.1404 C216.5301,73.1774 216.6741,73.2134 216.8221,73.2454 C217.0541,73.2954 217.2921,73.3364 217.5341,73.3764 C217.6821,73.4004 217.8271,73.4264 217.9791,73.4474 C218.2501,73.4824 218.5311,73.5074 218.8141,73.5324 C218.9481,73.5424 219.0771,73.5584 219.2151,73.5674 C219.6401,73.5934 220.0761,73.6094034 220.5271,73.6094034 C226.3761,73.6134 231.1181,70.0424 231.120101,64.0274 C231.1231,57.8604 226.4331,54.7364 220.5831,54.7324" id="Fill-28" fill="#1D1D1B"></path>
        </g>
    </g>
</svg>